<?xml version="1.0" encoding="UTF-8"?>
<!DOCTYPE svg PUBLIC "-//W3C//DTD SVG 1.1//EN" "http://www.w3.org/Graphics/SVG/1.1/DTD/svg11.dtd">
<!-- Creator: CorelDRAW 2017 -->
<svg xmlns="http://www.w3.org/2000/svg" xml:space="preserve" width="297mm" height="210mm" version="1.1" style="shape-rendering:geometricPrecision; text-rendering:geometricPrecision; image-rendering:optimizeQuality; fill-rule:evenodd; clip-rule:evenodd"
viewBox="0 0 29700 21000"
 xmlns:xlink="http://www.w3.org/1999/xlink">
 <defs>
  <style type="text/css">
   <![CDATA[
    .fil0 {fill:#B80B0B}
   ]]>
  </style>
 </defs>
 <g id="Capa_x0020_1">
  <metadata id="CorelCorpID_0Corel-Layer"/>
  <path class="fil0" d="M12654 6106c-310,272 -566,335 -838,604 -247,244 -426,623 -700,873 -1994,-1952 -3062,-670 -3501,-1131 -297,-349 -36,-478 63,-824 -1604,266 -3026,1779 -3559,3224 -1181,3199 1321,6749 4404,6988 522,41 1260,-113 1639,126 168,104 261,236 450,387 2573,2026 6283,1966 8867,60 1236,-912 225,-467 2032,-557 3399,-173 5830,-3723 4690,-6933 -530,-1497 -2221,-3262 -3567,-3254 249,44 321,625 77,810 -330,195 -1488,-71 -2109,118 -788,242 -1016,665 -1508,978 -187,-195 -272,-445 -739,-914 -448,-450 -719,-209 -763,-917 -69,-1109 -481,-1771 -1247,-2175 -1414,-741 -3630,-286 -3693,2540l0 -3zm1175 -121l2611 22c16,-879 -280,-1672 -1329,-1645 -925,25 -1335,670 -1282,1623zm-2224 9580c1189,958 3570,-178 4426,-747 1085,-722 2224,-1826 2985,-2856 1211,-1637 1175,-3303 2787,-2815 656,198 1211,994 840,1895 -426,1035 -1142,780 -2068,736 -986,1774 -3402,4166 -5256,4858 2164,110 4413,-1864 5154,-3111 1516,-47 2021,77 2872,-848 557,-604 1046,-1716 755,-2858 -505,-1994 -3045,-2952 -4374,-1129 -794,1090 -492,2221 -3075,4437 -623,535 -1398,1090 -2205,1505 -1576,807 -2425,730 -2845,934l3 0zm2587 -3339c-1093,876 -3108,1480 -4512,327 -165,-137 -475,-503 -623,-582 -557,-299 -1087,-58 -1436,-980 -557,-1477 1197,-2529 2227,-1486 914,928 -802,2447 2337,2452 -137,-404 -689,-901 -969,-1505 -255,-549 -354,-1238 -697,-1713 -1867,-2581 -5522,184 -4100,3174 618,1296 1551,1672 3306,1595 343,505 170,700 1112,769 3306,247 9374,-4805 6675,-6873 -475,-362 -868,-258 -1571,-261 -1019,-3 -2688,-200 -3325,360 -684,601 -725,1908 -170,2740 272,409 546,689 857,1000 188,188 890,720 890,983z"/>
  <path class="fil0" d="M10203 2873c-799,813 -2183,3169 -1848,4890 2090,113 1529,497 2290,582 -30,-1771 124,-2518 1013,-3592 1582,-1906 4487,-2191 6538,-66 1120,1162 980,1735 1090,3641 697,-91 412,-511 2254,-574 549,-1631 -1060,-3907 -1675,-4641 -2606,-3103 -6953,-3001 -9660,-242l-3 0z"/>
  <path class="fil0" d="M14445 13368l1299 36c-6,-431 -99,-665 -124,-980 -44,-516 159,-448 305,-813 239,-607 -286,-1156 -843,-1151 -610,5 -1076,610 -766,1258 157,327 305,253 261,684 -30,294 -137,632 -132,967z"/>
 </g>
</svg>
